<svg xmlns="http://www.w3.org/2000/svg" viewBox="0 0 59.06 59.06"><g data-name="Layer 2"><path d="M58.83 0L0 .23l.23 58.83 58.83-.23zM33.47 44.75v-.67L36.65 41c.31-.31.31-.41.31-.88l-.07-18-8.79 22.57h-1.2L16.49 22.2l.05 15.11a2.1 2.1 0 0 0 .58 1.69l4.17 5v.66l-11.77.05v-.61l4.13-5.05a2 2 0 0 0 .53-1.73l-.07-17.47a1.49 1.49 0 0 0-.5-1.29L9.9 14.13v-.67h11.46l8.93 19.39L38 13.35h10.92V14l-3.15 3a.92.92 0 0 0-.34.89l.08 22.23a.92.92 0 0 0 .36.88L49 44v.67z" fill="#737373" data-name="Layer 1"/></g></svg>