<svg xmlns="http://www.w3.org/2000/svg" viewBox="0 0 59 59"><g data-name="Layer 2"><path d="M29.5 0A29.5 29.5 0 1 0 59 29.5 29.5 29.5 0 0 0 29.5 0zm24.3 28.13A52.4 52.4 0 0 0 36.34 28c-.6-1.39-1.22-2.77-1.89-4.13a34.81 34.81 0 0 0 13.64-10 24.27 24.27 0 0 1 5.71 14.26zm-9.44-17.91a29.84 29.84 0 0 1-12.26 9A114.49 114.49 0 0 0 23.52 5.9a24.56 24.56 0 0 1 6-.77 24.31 24.31 0 0 1 14.84 5.09zM18.5 7.78A109.11 109.11 0 0 1 27.2 21a78.23 78.23 0 0 1-21.35 2.73A24.41 24.41 0 0 1 18.5 7.78zM5.13 29.5v-.63c9.46 0 17.63-1.1 24.46-3.25.58 1.17 1.12 2.34 1.65 3.52Q18.81 33 10.77 45.07A24.23 24.23 0 0 1 5.13 29.5zm9.41 19.2c4.84-7.59 11-12.53 18.68-14.82a95.8 95.8 0 0 1 5 18.34 24.13 24.13 0 0 1-23.68-3.52zM43 49.76a101.82 101.82 0 0 0-4.72-17 49.18 49.18 0 0 1 15.23.48A24.39 24.39 0 0 1 43 49.76z" fill="#737373" data-name="Layer 1"/></g></svg>