<svg xmlns="http://www.w3.org/2000/svg" viewBox="0 0 60.49 59"><g data-name="Layer 2"><path d="M30.25 0a30.25 30.25 0 0 0-9.56 59c1.51.28 2-.66 2-1.46v-5.68c-8.41 1.83-10.16-3.57-10.16-3.57-1.38-3.49-3.36-4.42-3.36-4.42-2.76-1.87.2-1.87.2-1.87A6.32 6.32 0 0 1 14 45.15c2.7 4.62 7.08 3.28 8.81 2.51a6.39 6.39 0 0 1 1.92-4C18 42.85 11 40.25 11 28.67a11.72 11.72 0 0 1 3.11-8.12 10.88 10.88 0 0 1 .3-8s2.54-.81 8.32 3.1a28.87 28.87 0 0 1 15.14 0c5.78-3.91 8.31-3.1 8.31-3.1a10.88 10.88 0 0 1 .3 8 11.69 11.69 0 0 1 3.11 8.12c0 11.61-7.07 14.17-13.81 14.92 1.09.94 2.08 2.78 2.08 5.6v8.3c0 .81.48 1.75 2 1.45A30.25 30.25 0 0 0 30.25 0z" fill="#737373" data-name="Layer 1"/></g></svg>